<svg width="48" height="48" viewBox="0 0 48 48" fill="none" xmlns="http://www.w3.org/2000/svg">
<g id="profile">
<path id="profile_2" fill-rule="evenodd" clip-rule="evenodd" d="M24.0002 3.99976C12.9602 3.99976 4.00024 12.9598 4.00024 23.9998C4.00024 35.0398 12.9602 43.9998 24.0002 43.9998C35.0402 43.9998 44.0002 35.0398 44.0002 23.9998C44.0002 12.9598 35.0402 3.99976 24.0002 3.99976ZM23.9999 9.99976C27.3199 9.99976 29.9999 12.6798 29.9999 15.9998C29.9999 19.3198 27.3199 21.9998 23.9999 21.9998C20.6799 21.9998 17.9999 19.3198 17.9999 15.9998C17.9999 12.6798 20.6799 9.99976 23.9999 9.99976ZM11.9999 31.9596C14.5799 35.8396 18.9999 38.3996 23.9999 38.3996C28.9999 38.3996 33.4199 35.8396 35.9999 31.9596C35.9399 27.9796 27.9799 25.7996 23.9999 25.7996C19.9999 25.7996 12.0599 27.9796 11.9999 31.9596Z" fill="#9C9C9C"/>
</g>
</svg>
